<?xml version="1.0" encoding="UTF-8"?>
<svg viewBox="0 0 499 127" class="logo-symbol" version="1.1" xmlns="http://www.w3.org/2000/svg" xmlns:xlink="http://www.w3.org/1999/xlink">
    <g id="Page-1" stroke="none" stroke-width="1" fill="none" fill-rule="evenodd">
        <g id="Benian-logo-dark">
            <g id="Group">
                <polygon id="Path" points="368.83 20.16 368.61 20.16 358.44 48.82 378.68 48.82"></polygon>
                <path d="M36.81,44.22 L18.1,44.22 L18.1,65.66 L36.48,65.66 C43.26,65.66 49.17,63.47 49.17,55.38 C49.17,47.4 44.14,44.22 36.81,44.22 Z" id="Path"></path>
                <path d="M46,23.22 C46,15.78 40.31,14.25 34.19,14.25 L18.1,14.25 L18.1,32.52 L35.49,32.52 C41.52,32.52 46,29.78 46,23.22 Z" id="Path"></path>
                <path d="M52.02,36.57 C58.8,33.29 62.63,27.93 62.63,20.27 C62.63,5.72 52.57,0.91 37.69,0.91 L0.93,0.91 L0.93,79.02 L38.78,79.02 C52.89,79.02 66.35,72.24 66.35,56.38 C66.35,46.63 61.53,39.3 52.02,36.57 Z M18.1,14.25 L34.18,14.25 C40.31,14.25 45.99,15.78 45.99,23.22 C45.99,29.78 41.5,32.52 35.49,32.52 L18.1,32.52 L18.1,14.25 Z M36.48,65.67 L18.1,65.67 L18.1,44.23 L36.81,44.23 C44.14,44.23 49.17,47.4 49.17,55.39 C49.17,63.48 43.27,65.67 36.48,65.67 Z" id="Shape" fill="#ffffff" fill-rule="nonzero"></path>
                <polygon id="Path" fill="#ffffff" fill-rule="nonzero" points="114.26 45.43 152.12 45.43 152.12 32.08 114.26 32.08 97.09 32.08 97.09 79.01 156.38 79.01 156.38 64.57 114.26 64.57"></polygon>
                <polygon id="Path" fill="#ffffff" fill-rule="nonzero" points="155.51 15.34 155.51 0.9 97.09 0.9 97.09 15.34 114.26 15.34"></polygon>
                <polygon id="Path" fill="#ffffff" fill-rule="nonzero" points="237.01 53.3 236.79 53.3 204.19 0.9 187.12 0.9 187.12 79.01 203.21 79.01 203.21 26.72 203.42 26.72 235.91 79.01 253.09 79.01 253.09 0.9 237.01 0.9"></polygon>
                <rect id="Rectangle" fill="#ffffff" fill-rule="nonzero" x="287.33" y="0.9" width="17.17" height="78.11"></rect>
                <polygon id="Path" fill="#ffffff" fill-rule="nonzero" points="360.08 0.9 330.44 79.01 347.83 79.01 353.96 61.62 358.44 48.82 368.61 20.16 368.83 20.16 378.68 48.82 383.16 61.62 389.07 79.01 406.9 79.01 377.69 0.9"></polygon>
                <polygon id="Path" fill="#ffffff" fill-rule="nonzero" points="482.72 0.9 482.72 53.3 482.5 53.3 449.9 0.9 432.83 0.9 432.83 79.01 448.91 79.01 448.91 26.72 449.13 26.72 481.62 79.01 498.8 79.01 498.8 0.9"></polygon>
            </g>
            <g id="Group" transform="translate(61.000000, 102.000000)" fill="#ffffff" fill-rule="nonzero">
                <path d="M0.09,1.25 L7.99,1.25 C14.87,1.41 18.49,5.19 18.49,12.67 C18.49,20.15 14.87,23.93 7.99,24.09 L0.09,24.09 L0.09,1.25 Z M2.26,22.24 L6.9,22.24 C13.46,22.27 16.31,19.49 16.31,12.67 C16.31,5.85 13.46,3.07 6.9,3.1 L2.26,3.1 L2.26,22.24 Z" id="Shape"></path>
                <polygon id="Path" points="37.78 1.25 53.55 1.25 53.55 3.11 39.95 3.11 39.95 11.36 52.69 11.36 52.69 13.22 39.95 13.22 39.95 22.24 53.71 22.24 53.71 24.1 37.77 24.1 37.77 1.25"></polygon>
                <polygon id="Path" points="70.83 1.25 73.17 1.25 80.59 21.7 80.65 21.7 88.01 1.25 90.31 1.25 81.83 24.1 79.3 24.1"></polygon>
                <polygon id="Path" points="108.21 1.25 123.98 1.25 123.98 3.11 110.38 3.11 110.38 11.36 123.12 11.36 123.12 13.22 110.38 13.22 110.38 22.24 124.14 22.24 124.14 24.1 108.2 24.1 108.2 1.25"></polygon>
                <polygon id="Path" points="142.55 1.25 144.73 1.25 144.73 22.24 157.53 22.24 157.53 24.1 142.55 24.1"></polygon>
                <path d="M183.88,0.77 C191.05,0.77 194.63,6.43 194.63,12.67 C194.63,18.91 191.05,24.57 183.88,24.57 C176.68,24.57 173.1,18.91 173.1,12.67 C173.09,6.43 176.68,0.77 183.88,0.77 Z M183.88,22.72 C189.9,22.72 192.46,17.66 192.46,12.67 C192.46,7.68 189.9,2.62 183.88,2.62 C177.83,2.62 175.27,7.68 175.27,12.67 C175.27,17.66 177.83,22.72 183.88,22.72 Z" id="Shape"></path>
                <path d="M213.82,1.25 L223.96,1.25 C228.06,1.25 230.74,3.65 230.74,7.78 C230.74,11.91 228.05,14.31 223.96,14.31 L216,14.31 L216,24.1 L213.82,24.1 L213.82,1.25 Z M216,12.45 L223.49,12.45 C226.5,12.45 228.58,10.91 228.58,7.78 C228.58,4.65 226.5,3.11 223.49,3.11 L216,3.11 L216,12.45 Z" id="Shape"></path>
                <polygon id="Path" points="249.21 1.25 252.41 1.25 260.31 21.28 268.18 1.25 271.38 1.25 271.38 24.1 269.2 24.1 269.2 4.36 269.14 4.36 261.33 24.1 259.28 24.1 251.44 4.36 251.38 4.36 251.38 24.1 249.2 24.1 249.2 1.25"></polygon>
                <polygon id="Path" points="291.73 1.25 307.5 1.25 307.5 3.11 293.9 3.11 293.9 11.36 306.64 11.36 306.64 13.22 293.9 13.22 293.9 22.24 307.66 22.24 307.66 24.1 291.73 24.1"></polygon>
                <polygon id="Path" points="326.04 1.25 328.47 1.25 341.78 20.58 341.84 20.58 341.84 1.25 344.02 1.25 344.02 24.1 341.59 24.1 328.28 4.77 328.22 4.77 328.22 24.1 326.04 24.1"></polygon>
                <polygon id="Path" points="361.99 1.25 380.1 1.25 380.1 3.11 372.13 3.11 372.13 24.1 369.95 24.1 369.95 3.11 361.98 3.11 361.98 1.25"></polygon>
            </g>
        </g>
    </g>
</svg>
