<?xml version="1.0" encoding="UTF-8"?>
<svg id="benian-symbol" fill="currentColor" viewBox="0 0 130 147" version="1.1" xmlns="http://www.w3.org/2000/svg" xmlns:xlink="http://www.w3.org/1999/xlink">
    <g id="Page-1" stroke="none" stroke-width="1" fill-rule="evenodd">
        <g id="Benian-logo-dark">
            <path d="M89.03,113.72 C93.44,113.72 97.05,110.11 97.05,105.7 C97.05,101.29 93.44,97.68 89.03,97.68 C59.36,97.68 29.71,97.6 0.12,97.6 L0.12,146.15 C29.76,146.15 59.39,146.15 89.03,146.15 C111.27,146.15 129.47,127.95 129.47,105.71 C129.47,92.53 123.08,80.76 113.24,73.37 C123.08,65.98 129.47,54.21 129.47,41.03 C129.47,18.79 111.27,0.59 89.03,0.59 L0.12,0.59 L0.12,49.06 C29.76,49.06 59.39,49.06 89.03,49.06 C93.44,49.06 97.05,45.45 97.05,41.04 C97.05,36.63 93.44,33.02 89.03,33.02 L16.16,33.02 L16.16,16.81 L89.03,16.81 C102.36,16.81 113.26,27.71 113.26,41.04 C113.26,54.37 102.35,65.28 89.03,65.28 L52.67,65.28 L52.67,65.28 L36.48,65.28 L36.48,65.28 L26.09,65.28 L25.97,65.28 L0.11,65.3 L0.11,81.41 L25.97,81.41 L25.97,81.48 L67.25,81.48 L89.03,81.49 C102.36,81.49 113.26,92.4 113.26,105.73 C113.26,119.05 102.35,129.96 89.03,129.96 L16.16,129.96 L16.16,113.75 L89.03,113.75 L89.03,113.72 Z" id="Path"></path>
        </g>
    </g>
</svg>
